{"asset":{"version":"2.0","generator":"THREE.GLTFExporter r175"},"scenes":[{"name":"AuxScene","nodes":[20]}],"scene":0,"nodes":[{"mesh":0},{"mesh":1},{"mesh":2},{"mesh":3},{"mesh":4},{"mesh":5},{"mesh":6},{"mesh":7},{"mesh":8},{"mesh":9},{"mesh":10},{"mesh":11},{"mesh":12},{"mesh":13},{"mesh":14},{"mesh":15},{"matrix":[0.11445376105704788,0,-0.1144537610570479,0,0,-0.1618620611514867,0,0,0.1144537610570479,0,0.11445376105704788,0,0,0,0,1],"children":[0,1,2,3,4,5,6,7,8,9,10,11,12,13,14,15]},{"children":[16]},{"matrix":[1,0,0,0,0,1,0,0,0,0,1,0,-30.847028151561965,46.199658461309085,30.38921313462168,1],"children":[17]},{"children":[18]},{"children":[19]}],"bufferViews":[{"buffer":0,"byteOffset":0,"byteLength":4176,"target":34962,"byteStride":12},{"buffer":0,"byteOffset":4176,"byteLength":2784,"target":34962,"byteStride":8},{"buffer":0,"byteOffset":6960,"byteLength":4176,"target":34962,"byteStride":12},{"buffer":0,"byteOffset":11136,"byteLength":2736,"target":34962,"byteStride":12},{"buffer":0,"byteOffset":13872,"byteLength":1824,"target":34962,"byteStride":8},{"buffer":0,"byteOffset":15696,"byteLength":2736,"target":34962,"byteStride":12},{"buffer":0,"byteOffset":18432,"byteLength":4896,"target":34962,"byteStride":12},{"buffer":0,"byteOffset":23328,"byteLength":3264,"target":34962,"byteStride":8},{"buffer":0,"byteOffset":26592,"byteLength":4896,"target":34962,"byteStride":12},{"buffer":0,"byteOffset":31488,"byteLength":2736,"target":34962,"byteStride":12},{"buffer":0,"byteOffset":34224,"byteLength":1824,"target":34962,"byteStride":8},{"buffer":0,"byteOffset":36048,"byteLength":2736,"target":34962,"byteStride":12},{"buffer":0,"byteOffset":38784,"byteLength":9216,"target":34962,"byteStride":12},{"buffer":0,"byteOffset":48000,"byteLength":6144,"target":34962,"byteStride":8},{"buffer":0,"byteOffset":54144,"byteLength":9216,"target":34962,"byteStride":12},{"buffer":0,"byteOffset":63360,"byteLength":9216,"target":34962,"byteStride":12},{"buffer":0,"byteOffset":72576,"byteLength":6144,"target":34962,"byteStride":8},{"buffer":0,"byteOffset":78720,"byteLength":9216,"target":34962,"byteStride":12},{"buffer":0,"byteOffset":87936,"byteLength":2736,"target":34962,"byteStride":12},{"buffer":0,"byteOffset":90672,"byteLength":1824,"target":34962,"byteStride":8},{"buffer":0,"byteOffset":92496,"byteLength":2736,"target":34962,"byteStride":12},{"buffer":0,"byteOffset":95232,"byteLength":2736,"target":34962,"byteStride":12},{"buffer":0,"byteOffset":97968,"byteLength":1824,"target":34962,"byteStride":8},{"buffer":0,"byteOffset":99792,"byteLength":2736,"target":34962,"byteStride":12},{"buffer":0,"byteOffset":102528,"byteLength":2736,"target":34962,"byteStride":12},{"buffer":0,"byteOffset":105264,"byteLength":1824,"target":34962,"byteStride":8},{"buffer":0,"byteOffset":107088,"byteLength":2736,"target":34962,"byteStride":12},{"buffer":0,"byteOffset":109824,"byteLength":7056,"target":34962,"byteStride":12},{"buffer":0,"byteOffset":116880,"byteLength":4704,"target":34962,"byteStride":8},{"buffer":0,"byteOffset":121584,"byteLength":7056,"target":34962,"byteStride":12},{"buffer":0,"byteOffset":128640,"byteLength":5616,"target":34962,"byteStride":12},{"buffer":0,"byteOffset":134256,"byteLength":3744,"target":34962,"byteStride":8},{"buffer":0,"byteOffset":138000,"byteLength":5616,"target":34962,"byteStride":12},{"buffer":0,"byteOffset":143616,"byteLength":168336,"target":34962,"byteStride":12},{"buffer":0,"byteOffset":311952,"byteLength":112224,"target":34962,"byteStride":8},{"buffer":0,"byteOffset":424176,"byteLength":168336,"target":34962,"byteStride":12},{"buffer":0,"byteOffset":592512,"byteLength":4176,"target":34962,"byteStride":12},{"buffer":0,"byteOffset":596688,"byteLength":2784,"target":34962,"byteStride":8},{"buffer":0,"byteOffset":599472,"byteLength":4176,"target":34962,"byteStride":12},{"buffer":0,"byteOffset":603648,"byteLength":7776,"target":34962,"byteStride":12},{"buffer":0,"byteOffset":611424,"byteLength":5184,"target":34962,"byteStride":8},{"buffer":0,"byteOffset":616608,"byteLength":7776,"target":34962,"byteStride":12},{"buffer":0,"byteOffset":624384,"byteLength":81216,"target":34962,"byteStride":12},{"buffer":0,"byteOffset":705600,"byteLength":54144,"target":34962,"byteStride":8},{"buffer":0,"byteOffset":759744,"byteLength":81216,"target":34962,"byteStride":12},{"buffer":0,"byteOffset":840960,"byteLength":69624,"target":34962,"byteStride":12},{"buffer":0,"byteOffset":910584,"byteLength":46416,"target":34962,"byteStride":8},{"buffer":0,"byteOffset":957000,"byteLength":69624,"target":34962,"byteStride":12}],"buffers":[{"byteLength":1026624,"uri":"data:application/octet-stream;base64,"}],"accessors":[{"bufferView":0,"componentType":5126,"count":348,"max":[41.79999923706055,570.5499877929688,97.5999984741211],"min":[-0.30000001192092896,499.45001220703125,-0.6000000238418579],"type":"VEC3"},{"bufferView":1,"componentType":5126,"count":348,"max":[570.5499877929688,570.25],"min":[-0.30000001192092896,-96.5999984741211],"type":"VEC2"},{"bufferView":2,"componentType":5126,"count":348,"max":[1,1,1],"min":[-1,-1,-1],"type":"VEC3"},{"bufferView":3,"componentType":5126,"count":228,"max":[69,570.5499877929688,97.5999984741211],"min":[48.79999923706055,499.45001220703125,-0.6000000238418579],"type":"VEC3"},{"bufferView":4,"componentType":5126,"count":228,"max":[570.5499877929688,570.25],"min":[48.79999923706055,-96.5999984741211],"type":"VEC2"},{"bufferView":5,"componentType":5126,"count":228,"max":[1,1,1],"min":[-1,-1,-1],"type":"VEC3"},{"bufferView":6,"componentType":5126,"count":408,"max":[148.84544372558594,570.5499877929688,97.5999984741211],"min":[74.35440826416016,499.45001220703125,-0.6000000238418579],"type":"VEC3"},{"bufferView":7,"componentType":5126,"count":408,"max":[570.5499877929688,570.25],"min":[74.35440826416016,-96.5999984741211],"type":"VEC2"},{"bufferView":8,"componentType":5126,"count":408,"max":[0.9549497365951538,1,1],"min":[-0.9554796814918518,-0.9999969005584717,-1],"type":"VEC3"},{"bufferView":9,"componentType":5126,"count":228,"max":[200,515.75,97.5999984741211],"min":[154.3000030517578,499.45001220703125,-0.6000000238418579],"type":"VEC3"},{"bufferView":10,"componentType":5126,"count":228,"max":[515.75,515.4500122070312],"min":[154.3000030517578,-96.5999984741211],"type":"VEC2"},{"bufferView":11,"componentType":5126,"count":228,"max":[1,1,1],"min":[-1,-1,-1],"type":"VEC3"},{"bufferView":12,"componentType":5126,"count":768,"max":[200,570.5399780273438,97.5999984741211],"min":[154.3000030517578,554.239990234375,-0.6000000238418579],"type":"VEC3"},{"bufferView":13,"componentType":5126,"count":768,"max":[570.5399780273438,570.239990234375],"min":[154.3000030517578,-96.5999984741211],"type":"VEC2"},{"bufferView":14,"componentType":5126,"count":768,"max":[1,1,1],"min":[-1,-1,-1],"type":"VEC3"},{"bufferView":15,"componentType":5126,"count":768,"max":[197,542.1400146484375,97.5999984741211],"min":[154.3000030517578,526.6400146484375,-0.6000000238418579],"type":"VEC3"},{"bufferView":16,"componentType":5126,"count":768,"max":[542.1400146484375,541.8400268554688],"min":[154.3000030517578,-96.5999984741211],"type":"VEC2"},{"bufferView":17,"componentType":5126,"count":768,"max":[1,1,1],"min":[-1,-1,-1],"type":"VEC3"},{"bufferView":18,"componentType":5126,"count":228,"max":[211.6199951171875,515.5399780273438,97.5999984741211],"min":[154.02000427246094,499.3399963378906,-0.6000000238418579],"type":"VEC3"},{"bufferView":19,"componentType":5126,"count":228,"max":[515.5399780273438,515.239990234375],"min":[154.02000427246094,-96.5999984741211],"type":"VEC2"},{"bufferView":20,"componentType":5126,"count":228,"max":[1,1,1],"min":[-1,-1,-1],"type":"VEC3"},{"bufferView":21,"componentType":5126,"count":228,"max":[211.6199951171875,542.3499755859375,97.5999984741211],"min":[154.02000427246094,526.1500244140625,-0.6000000238418579],"type":"VEC3"},{"bufferView":22,"componentType":5126,"count":228,"max":[542.3499755859375,542.0499877929688],"min":[154.02000427246094,-96.5999984741211],"type":"VEC2"},{"bufferView":23,"componentType":5126,"count":228,"max":[1,1,1],"min":[-1,-1,-1],"type":"VEC3"},{"bufferView":24,"componentType":5126,"count":228,"max":[211.6199951171875,570.4400024414062,97.5999984741211],"min":[154.02000427246094,554.239990234375,-0.6000000238418579],"type":"VEC3"},{"bufferView":25,"componentType":5126,"count":228,"max":[570.4400024414062,570.1400146484375],"min":[154.02000427246094,-96.5999984741211],"type":"VEC2"},{"bufferView":26,"componentType":5126,"count":228,"max":[1,1,1],"min":[-1,-1,-1],"type":"VEC3"},{"bufferView":27,"componentType":5126,"count":588,"max":[287,570.5499877929688,97.5999984741211],"min":[221.10000610351562,499.45001220703125,-0.6000000238418579],"type":"VEC3"},{"bufferView":28,"componentType":5126,"count":588,"max":[570.5499877929688,570.25],"min":[221.10000610351562,-96.5999984741211],"type":"VEC2"},{"bufferView":29,"componentType":5126,"count":588,"max":[1,1,1],"min":[-1,-1,-1],"type":"VEC3"},{"bufferView":30,"componentType":5126,"count":468,"max":[351.29998779296875,570.5499877929688,97.5999984741211],"min":[293.70001220703125,499.45001220703125,-0.6000000238418579],"type":"VEC3"},{"bufferView":31,"componentType":5126,"count":468,"max":[570.5499877929688,570.25],"min":[293.70001220703125,-96.5999984741211],"type":"VEC2"},{"bufferView":32,"componentType":5126,"count":468,"max":[1,1,1],"min":[-1,-1,-1],"type":"VEC3"},{"bufferView":33,"componentType":5126,"count":14028,"max":[411.5001525878906,571.2501220703125,97.5999984741211],"min":[355.8854675292969,498.34991455078125,-0.6000000238418579],"type":"VEC3"},{"bufferView":34,"componentType":5126,"count":14028,"max":[563.81591796875,570.9500122070312],"min":[355.8854675292969,-96.5999984741211],"type":"VEC2"},{"bufferView":35,"componentType":5126,"count":14028,"max":[0.9994863867759705,0.9999998211860657,1],"min":[-0.9995474815368652,-0.9999997615814209,-1],"type":"VEC3"},{"bufferView":36,"componentType":5126,"count":348,"max":[462.20001220703125,570.5499877929688,97.5999984741211],"min":[420.1000061035156,499.45001220703125,-0.6000000238418579],"type":"VEC3"},{"bufferView":37,"componentType":5126,"count":348,"max":[570.5499877929688,570.25],"min":[420.1000061035156,-96.5999984741211],"type":"VEC2"},{"bufferView":38,"componentType":5126,"count":348,"max":[1,1,1],"min":[-1,-1,-1],"type":"VEC3"},{"bufferView":39,"componentType":5126,"count":648,"max":[535.3794555664062,570.5499877929688,97.5999984741211],"min":[469.29998779296875,499.45001220703125,-0.6000000238418579],"type":"VEC3"},{"bufferView":40,"componentType":5126,"count":648,"max":[570.5499877929688,570.25],"min":[469.29998779296875,-96.5999984741211],"type":"VEC2"},{"bufferView":41,"componentType":5126,"count":648,"max":[0.9999846816062927,1,1],"min":[-1,-1,-1],"type":"VEC3"},{"bufferView":42,"componentType":5126,"count":6768,"max":[353.5748291015625,377.6123962402344,97.5999984741211],"min":[167.74359130859375,-0.3979021906852722,-0.6000000238418579],"type":"VEC3"},{"bufferView":43,"componentType":5126,"count":6768,"max":[377.6123962402344,377.239990234375],"min":[-0.13470664620399475,-96.5999984741211],"type":"VEC2"},{"bufferView":44,"componentType":5126,"count":6768,"max":[0.9986294507980347,0.7598835229873657,1],"min":[-0.9998591542243958,-0.8262016177177429,-1],"type":"VEC3"},{"bufferView":45,"componentType":5126,"count":5802,"max":[299.00408935546875,453.3762512207031,97.5999984741211],"min":[183.37350463867188,219.97369384765625,-0.6000000238418579],"type":"VEC3"},{"bufferView":46,"componentType":5126,"count":5802,"max":[453.3762512207031,453.0299987792969],"min":[183.6737518310547,-96.5999984741211],"type":"VEC2"},{"bufferView":47,"componentType":5126,"count":5802,"max":[0.99918133020401,0.6859536170959473,1],"min":[-0.999930739402771,-0.858149528503418,-1],"type":"VEC3"}],"materials":[{"pbrMetallicRoughness":{"baseColorFactor":[0.6375968739867731,0.6653872982754769,0.7083757798856457,1],"metallicFactor":1,"roughnessFactor":0.2},"doubleSided":true,"extensions":{"KHR_materials_clearcoat":{"clearcoatFactor":0.1,"clearcoatRoughnessFactor":0}}}],"meshes":[{"primitives":[{"mode":4,"attributes":{"POSITION":0,"TEXCOORD_0":1,"NORMAL":2},"material":0}]},{"primitives":[{"mode":4,"attributes":{"POSITION":3,"TEXCOORD_0":4,"NORMAL":5},"material":0}]},{"primitives":[{"mode":4,"attributes":{"POSITION":6,"TEXCOORD_0":7,"NORMAL":8},"material":0}]},{"primitives":[{"mode":4,"attributes":{"POSITION":9,"TEXCOORD_0":10,"NORMAL":11},"material":0}]},{"primitives":[{"mode":4,"attributes":{"POSITION":12,"TEXCOORD_0":13,"NORMAL":14},"material":0}]},{"primitives":[{"mode":4,"attributes":{"POSITION":15,"TEXCOORD_0":16,"NORMAL":17},"material":0}]},{"primitives":[{"mode":4,"attributes":{"POSITION":18,"TEXCOORD_0":19,"NORMAL":20},"material":0}]},{"primitives":[{"mode":4,"attributes":{"POSITION":21,"TEXCOORD_0":22,"NORMAL":23},"material":0}]},{"primitives":[{"mode":4,"attributes":{"POSITION":24,"TEXCOORD_0":25,"NORMAL":26},"material":0}]},{"primitives":[{"mode":4,"attributes":{"POSITION":27,"TEXCOORD_0":28,"NORMAL":29},"material":0}]},{"primitives":[{"mode":4,"attributes":{"POSITION":30,"TEXCOORD_0":31,"NORMAL":32},"material":0}]},{"primitives":[{"mode":4,"attributes":{"POSITION":33,"TEXCOORD_0":34,"NORMAL":35},"material":0}]},{"primitives":[{"mode":4,"attributes":{"POSITION":36,"TEXCOORD_0":37,"NORMAL":38},"material":0}]},{"primitives":[{"mode":4,"attributes":{"POSITION":39,"TEXCOORD_0":40,"NORMAL":41},"material":0}]},{"primitives":[{"mode":4,"attributes":{"POSITION":42,"TEXCOORD_0":43,"NORMAL":44},"material":0}]},{"primitives":[{"mode":4,"attributes":{"POSITION":45,"TEXCOORD_0":46,"NORMAL":47},"material":0}]}],"extensionsUsed":["KHR_materials_clearcoat"]}