{"asset":{"version":"2.0","generator":"THREE.GLTFExporter r175"},"scenes":[{"name":"AuxScene","nodes":[20]}],"scene":0,"nodes":[{"mesh":0},{"mesh":1},{"mesh":2},{"mesh":3},{"mesh":4},{"mesh":5},{"mesh":6},{"mesh":7},{"mesh":8},{"mesh":9},{"mesh":10},{"mesh":11},{"mesh":12},{"mesh":13},{"mesh":14},{"mesh":15},{"matrix":[0.06541894005741078,0,-0.0654189400574108,0,0,-0.09251635226526288,0,0,0.0654189400574108,0,0.06541894005741078,0,0,0,0,1],"children":[0,1,2,3,4,5,6,7,8,9,10,11,12,13,14,15]},{"children":[16]},{"matrix":[1,0,0,0,0,1,0,0,0,0,1,0,-35.48810806790574,9.532109960180378,35.2264323232732,1],"children":[17]},{"children":[18]},{"children":[19]}],"bufferViews":[{"buffer":0,"byteOffset":0,"byteLength":4176,"target":34962,"byteStride":12},{"buffer":0,"byteOffset":4176,"byteLength":2784,"target":34962,"byteStride":8},{"buffer":0,"byteOffset":6960,"byteLength":4176,"target":34962,"byteStride":12},{"buffer":0,"byteOffset":11136,"byteLength":2736,"target":34962,"byteStride":12},{"buffer":0,"byteOffset":13872,"byteLength":1824,"target":34962,"byteStride":8},{"buffer":0,"byteOffset":15696,"byteLength":2736,"target":34962,"byteStride":12},{"buffer":0,"byteOffset":18432,"byteLength":4896,"target":34962,"byteStride":12},{"buffer":0,"byteOffset":23328,"byteLength":3264,"target":34962,"byteStride":8},{"buffer":0,"byteOffset":26592,"byteLength":4896,"target":34962,"byteStride":12},{"buffer":0,"byteOffset":31488,"byteLength":2736,"target":34962,"byteStride":12},{"buffer":0,"byteOffset":34224,"byteLength":1824,"target":34962,"byteStride":8},{"buffer":0,"byteOffset":36048,"byteLength":2736,"target":34962,"byteStride":12},{"buffer":0,"byteOffset":38784,"byteLength":4824,"target":34962,"byteStride":12},{"buffer":0,"byteOffset":43608,"byteLength":3216,"target":34962,"byteStride":8},{"buffer":0,"byteOffset":46824,"byteLength":4824,"target":34962,"byteStride":12},{"buffer":0,"byteOffset":51648,"byteLength":4176,"target":34962,"byteStride":12},{"buffer":0,"byteOffset":55824,"byteLength":2784,"target":34962,"byteStride":8},{"buffer":0,"byteOffset":58608,"byteLength":4176,"target":34962,"byteStride":12},{"buffer":0,"byteOffset":62784,"byteLength":2736,"target":34962,"byteStride":12},{"buffer":0,"byteOffset":65520,"byteLength":1824,"target":34962,"byteStride":8},{"buffer":0,"byteOffset":67344,"byteLength":2736,"target":34962,"byteStride":12},{"buffer":0,"byteOffset":70080,"byteLength":2736,"target":34962,"byteStride":12},{"buffer":0,"byteOffset":72816,"byteLength":1824,"target":34962,"byteStride":8},{"buffer":0,"byteOffset":74640,"byteLength":2736,"target":34962,"byteStride":12},{"buffer":0,"byteOffset":77376,"byteLength":2736,"target":34962,"byteStride":12},{"buffer":0,"byteOffset":80112,"byteLength":1824,"target":34962,"byteStride":8},{"buffer":0,"byteOffset":81936,"byteLength":2736,"target":34962,"byteStride":12},{"buffer":0,"byteOffset":84672,"byteLength":7056,"target":34962,"byteStride":12},{"buffer":0,"byteOffset":91728,"byteLength":4704,"target":34962,"byteStride":8},{"buffer":0,"byteOffset":96432,"byteLength":7056,"target":34962,"byteStride":12},{"buffer":0,"byteOffset":103488,"byteLength":5616,"target":34962,"byteStride":12},{"buffer":0,"byteOffset":109104,"byteLength":3744,"target":34962,"byteStride":8},{"buffer":0,"byteOffset":112848,"byteLength":5616,"target":34962,"byteStride":12},{"buffer":0,"byteOffset":118464,"byteLength":169056,"target":34962,"byteStride":12},{"buffer":0,"byteOffset":287520,"byteLength":112704,"target":34962,"byteStride":8},{"buffer":0,"byteOffset":400224,"byteLength":169056,"target":34962,"byteStride":12},{"buffer":0,"byteOffset":569280,"byteLength":4176,"target":34962,"byteStride":12},{"buffer":0,"byteOffset":573456,"byteLength":2784,"target":34962,"byteStride":8},{"buffer":0,"byteOffset":576240,"byteLength":4176,"target":34962,"byteStride":12},{"buffer":0,"byteOffset":580416,"byteLength":7776,"target":34962,"byteStride":12},{"buffer":0,"byteOffset":588192,"byteLength":5184,"target":34962,"byteStride":8},{"buffer":0,"byteOffset":593376,"byteLength":7776,"target":34962,"byteStride":12},{"buffer":0,"byteOffset":601152,"byteLength":80496,"target":34962,"byteStride":12},{"buffer":0,"byteOffset":681648,"byteLength":53664,"target":34962,"byteStride":8},{"buffer":0,"byteOffset":735312,"byteLength":80496,"target":34962,"byteStride":12},{"buffer":0,"byteOffset":815808,"byteLength":68976,"target":34962,"byteStride":12},{"buffer":0,"byteOffset":884784,"byteLength":45984,"target":34962,"byteStride":8},{"buffer":0,"byteOffset":930768,"byteLength":68976,"target":34962,"byteStride":12}],"buffers":[{"byteLength":999744,"uri":"data:application/octet-stream;base64,"}],"accessors":[{"bufferView":0,"componentType":5126,"count":348,"max":[222.77999877929688,165.4499969482422,58.599998474121094],"min":[145.82000732421875,37.93000030517578,-0.6000000238418579],"type":"VEC3"},{"bufferView":1,"componentType":5126,"count":348,"max":[222.77999877929688,163.14999389648438],"min":[37.93000030517578,-57.599998474121094],"type":"VEC2"},{"bufferView":2,"componentType":5126,"count":348,"max":[1,1,1],"min":[-1,-1,-1],"type":"VEC3"},{"bufferView":3,"componentType":5126,"count":228,"max":[270.20001220703125,165.4499969482422,58.599998474121094],"min":[231.42999267578125,37.93000030517578,-0.6000000238418579],"type":"VEC3"},{"bufferView":4,"componentType":5126,"count":228,"max":[270.20001220703125,163.14999389648438],"min":[37.93000030517578,-57.599998474121094],"type":"VEC2"},{"bufferView":5,"componentType":5126,"count":228,"max":[1,1,1],"min":[-1,-1,-1],"type":"VEC3"},{"bufferView":6,"componentType":5126,"count":408,"max":[409.6883850097656,165.4499969482422,58.599998474121094],"min":[275.71038818359375,37.93000030517578,-0.6000000238418579],"type":"VEC3"},{"bufferView":7,"componentType":5126,"count":408,"max":[409.6883850097656,163.14999389648438],"min":[37.93000030517578,-57.599998474121094],"type":"VEC2"},{"bufferView":8,"componentType":5126,"count":408,"max":[0.9582457542419434,1,1],"min":[-0.9587158560752869,-0.9999490976333618,-1],"type":"VEC3"},{"bufferView":9,"componentType":5126,"count":228,"max":[498.6000061035156,69.9000015258789,58.599998474121094],"min":[415.3699951171875,37.93000030517578,-0.6000000238418579],"type":"VEC3"},{"bufferView":10,"componentType":5126,"count":228,"max":[498.6000061035156,67.5999984741211],"min":[37.93000030517578,-57.599998474121094],"type":"VEC2"},{"bufferView":11,"componentType":5126,"count":228,"max":[1,1,1],"min":[-1,-1,-1],"type":"VEC3"},{"bufferView":12,"componentType":5126,"count":402,"max":[498.6000061035156,165.4600067138672,58.599998474121094],"min":[415.3699951171875,132.52731323242188,-0.6000000238418579],"type":"VEC3"},{"bufferView":13,"componentType":5126,"count":402,"max":[498.6000061035156,163.16000366210938],"min":[133.49000549316406,-57.599998474121094],"type":"VEC2"},{"bufferView":14,"componentType":5126,"count":402,"max":[1,1,1],"min":[-1,-1,-1],"type":"VEC3"},{"bufferView":15,"componentType":5126,"count":348,"max":[493.3699951171875,115.94000244140625,58.599998474121094],"min":[415.3699951171875,85.36000061035156,-0.6000000238418579],"type":"VEC3"},{"bufferView":16,"componentType":5126,"count":348,"max":[493.3699951171875,113.63999938964844],"min":[85.36000061035156,-57.599998474121094],"type":"VEC2"},{"bufferView":17,"componentType":5126,"count":348,"max":[1,1,1],"min":[-1,-1,-1],"type":"VEC3"},{"bufferView":18,"componentType":5126,"count":228,"max":[518.8599853515625,69.55000305175781,58.599998474121094],"min":[414.8800048828125,37.75,-0.6000000238418579],"type":"VEC3"},{"bufferView":19,"componentType":5126,"count":228,"max":[518.8599853515625,67.25],"min":[37.75,-57.599998474121094],"type":"VEC2"},{"bufferView":20,"componentType":5126,"count":228,"max":[1,1,1],"min":[-1,-1,-1],"type":"VEC3"},{"bufferView":21,"componentType":5126,"count":228,"max":[518.8599853515625,116.29000091552734,58.599998474121094],"min":[414.8800048828125,84.48999786376953,-0.6000000238418579],"type":"VEC3"},{"bufferView":22,"componentType":5126,"count":228,"max":[518.8599853515625,113.98999786376953],"min":[84.48999786376953,-57.599998474121094],"type":"VEC2"},{"bufferView":23,"componentType":5126,"count":228,"max":[1,1,1],"min":[-1,-1,-1],"type":"VEC3"},{"bufferView":24,"componentType":5126,"count":228,"max":[518.8599853515625,165.25,58.599998474121094],"min":[414.8800048828125,133.4499969482422,-0.6000000238418579],"type":"VEC3"},{"bufferView":25,"componentType":5126,"count":228,"max":[518.8599853515625,162.9499969482422],"min":[133.4499969482422,-57.599998474121094],"type":"VEC2"},{"bufferView":26,"componentType":5126,"count":228,"max":[1,1,1],"min":[-1,-1,-1],"type":"VEC3"},{"bufferView":27,"componentType":5126,"count":588,"max":[650.280029296875,165.4499969482422,58.599998474121094],"min":[531.8300170898438,37.93000030517578,-0.6000000238418579],"type":"VEC3"},{"bufferView":28,"componentType":5126,"count":588,"max":[650.280029296875,163.14999389648438],"min":[37.93000030517578,-57.599998474121094],"type":"VEC2"},{"bufferView":29,"componentType":5126,"count":588,"max":[1,1,1],"min":[-1,-1,-1],"type":"VEC3"},{"bufferView":30,"componentType":5126,"count":468,"max":[762.3900146484375,165.4499969482422,58.599998474121094],"min":[658.4099731445312,37.93000030517578,-0.6000000238418579],"type":"VEC3"},{"bufferView":31,"componentType":5126,"count":468,"max":[762.3900146484375,163.14999389648438],"min":[37.93000030517578,-57.599998474121094],"type":"VEC2"},{"bufferView":32,"componentType":5126,"count":468,"max":[1,1,1],"min":[-1,-1,-1],"type":"VEC3"},{"bufferView":33,"componentType":5126,"count":14088,"max":[867.3511962890625,166.68080139160156,58.599998474121094],"min":[766.748291015625,36.02928161621094,-0.6000000238418579],"type":"VEC3"},{"bufferView":34,"componentType":5126,"count":14088,"max":[865.883544921875,164.3800048828125],"min":[49.34373092651367,-57.599998474121094],"type":"VEC2"},{"bufferView":35,"componentType":5126,"count":14088,"max":[0.9994864463806152,0.9999966025352478,1],"min":[-0.9999443292617798,-0.9999958872795105,-1],"type":"VEC3"},{"bufferView":36,"componentType":5126,"count":348,"max":[955.739990234375,165.4499969482422,58.599998474121094],"min":[878.7899780273438,37.93000030517578,-0.6000000238418579],"type":"VEC3"},{"bufferView":37,"componentType":5126,"count":348,"max":[955.739990234375,163.14999389648438],"min":[37.93000030517578,-57.599998474121094],"type":"VEC2"},{"bufferView":38,"componentType":5126,"count":348,"max":[1,1,1],"min":[-1,-1,-1],"type":"VEC3"},{"bufferView":39,"componentType":5126,"count":648,"max":[1083.7989501953125,165.4499969482422,58.599998474121094],"min":[964.5700073242188,37.93000030517578,-0.6000000238418579],"type":"VEC3"},{"bufferView":40,"componentType":5126,"count":648,"max":[1083.7989501953125,163.14999389648438],"min":[37.93000030517578,-57.599998474121094],"type":"VEC2"},{"bufferView":41,"componentType":5126,"count":648,"max":[0.9996972680091858,1,1],"min":[-1,-1,-1],"type":"VEC3"},{"bufferView":42,"componentType":5126,"count":6708,"max":[86.59197235107422,174.475341796875,58.599998474121094],"min":[-2.2724955081939697,-2.937593936920166,-0.6000000238418579],"type":"VEC3"},{"bufferView":43,"componentType":5126,"count":6708,"max":[174.475341796875,171.6199951171875],"min":[-2.937593936920166,-57.599998474121094],"type":"VEC2"},{"bufferView":44,"componentType":5126,"count":6708,"max":[0.9986326098442078,0.8566626310348511,1],"min":[-0.9998617768287659,-0.8739444017410278,-1],"type":"VEC3"},{"bufferView":45,"componentType":5126,"count":5748,"max":[61.75796127319336,208.75579833984375,58.599998474121094],"min":[4.818094730377197,97.63459014892578,-0.6000000238418579],"type":"VEC3"},{"bufferView":46,"componentType":5126,"count":5748,"max":[208.75579833984375,206.10000610351562],"min":[7.119999885559082,-57.599998474121094],"type":"VEC2"},{"bufferView":47,"componentType":5126,"count":5748,"max":[0.9994687438011169,0.8124088644981384,1],"min":[-0.999929666519165,-0.9747156500816345,-1],"type":"VEC3"}],"materials":[{"pbrMetallicRoughness":{"baseColorFactor":[0.6375968739867731,0.6653872982754769,0.7083757798856457,1],"metallicFactor":1,"roughnessFactor":0.2},"doubleSided":true,"extensions":{"KHR_materials_clearcoat":{"clearcoatFactor":0.1,"clearcoatRoughnessFactor":0}}}],"meshes":[{"primitives":[{"mode":4,"attributes":{"POSITION":0,"TEXCOORD_0":1,"NORMAL":2},"material":0}]},{"primitives":[{"mode":4,"attributes":{"POSITION":3,"TEXCOORD_0":4,"NORMAL":5},"material":0}]},{"primitives":[{"mode":4,"attributes":{"POSITION":6,"TEXCOORD_0":7,"NORMAL":8},"material":0}]},{"primitives":[{"mode":4,"attributes":{"POSITION":9,"TEXCOORD_0":10,"NORMAL":11},"material":0}]},{"primitives":[{"mode":4,"attributes":{"POSITION":12,"TEXCOORD_0":13,"NORMAL":14},"material":0}]},{"primitives":[{"mode":4,"attributes":{"POSITION":15,"TEXCOORD_0":16,"NORMAL":17},"material":0}]},{"primitives":[{"mode":4,"attributes":{"POSITION":18,"TEXCOORD_0":19,"NORMAL":20},"material":0}]},{"primitives":[{"mode":4,"attributes":{"POSITION":21,"TEXCOORD_0":22,"NORMAL":23},"material":0}]},{"primitives":[{"mode":4,"attributes":{"POSITION":24,"TEXCOORD_0":25,"NORMAL":26},"material":0}]},{"primitives":[{"mode":4,"attributes":{"POSITION":27,"TEXCOORD_0":28,"NORMAL":29},"material":0}]},{"primitives":[{"mode":4,"attributes":{"POSITION":30,"TEXCOORD_0":31,"NORMAL":32},"material":0}]},{"primitives":[{"mode":4,"attributes":{"POSITION":33,"TEXCOORD_0":34,"NORMAL":35},"material":0}]},{"primitives":[{"mode":4,"attributes":{"POSITION":36,"TEXCOORD_0":37,"NORMAL":38},"material":0}]},{"primitives":[{"mode":4,"attributes":{"POSITION":39,"TEXCOORD_0":40,"NORMAL":41},"material":0}]},{"primitives":[{"mode":4,"attributes":{"POSITION":42,"TEXCOORD_0":43,"NORMAL":44},"material":0}]},{"primitives":[{"mode":4,"attributes":{"POSITION":45,"TEXCOORD_0":46,"NORMAL":47},"material":0}]}],"extensionsUsed":["KHR_materials_clearcoat"]}