<svg width="31" height="32" viewBox="0 0 31 32" fill="none" xmlns="http://www.w3.org/2000/svg">
<path d="M15.4997 31.5V31.496C11.2171 31.496 7.34232 29.7618 4.54001 26.9597C1.7377 24.1577 0.00403646 20.2827 0.00403646 16.0005H0V16H0.00403646C0.00403646 11.7168 1.7382 7.84232 4.54026 5.04C7.34232 2.2382 11.2173 0.504036 15.4995 0.504036V0.5H15.5V0.504036C19.7829 0.504036 23.6577 2.2382 26.4597 5.04C29.2618 7.84232 30.996 11.7171 30.996 15.9992H31V16H30.996C30.996 20.2827 29.2618 24.1574 26.4597 26.9595C23.6577 29.7615 19.7827 31.496 15.5005 31.496V31.5H15.4997ZM12.9119 20.7835C12.4303 21.2789 12.4416 22.0701 12.9366 22.5519C13.4313 23.0335 14.2232 23.0227 14.7048 22.5272L20.2141 16.8461L19.3175 15.9743L20.2179 16.8466C20.6997 16.3494 20.6876 15.556 20.1906 15.0739C20.1762 15.0595 20.1616 15.0464 20.1465 15.0333L14.7048 9.46876C14.2232 8.97353 13.4313 8.96243 12.9366 9.44429C12.4416 9.92538 12.4303 10.717 12.9119 11.2125L17.5722 15.9778L12.9119 20.7835Z" fill="black"/>
</svg>
