<svg width="126" height="24" viewBox="0 0 126 24" fill="none" xmlns="http://www.w3.org/2000/svg">
<g clip-path="url(#clip0_23_58)">
<path fill-rule="evenodd" clip-rule="evenodd" d="M21.251 15.9533H25.7017V18.9984H17.2666V4.68457H21.251V15.9533Z" fill="white"/>
<path d="M31.2293 4.68457H27.2461V18.9984H31.2293V4.68457Z" fill="white"/>
<path fill-rule="evenodd" clip-rule="evenodd" d="M47.4495 4.68457L42.5104 18.9984H37.4093L32.4492 4.68457H36.718L39.9692 15.0194L43.2017 4.68457H47.4495Z" fill="white"/>
<path fill-rule="evenodd" clip-rule="evenodd" d="M48.6885 4.68457V7.87176H57.8544V4.68457H48.6885ZM55.4542 15.8112V15.8135H48.6885V18.9996H57.8544V15.8124H55.4542V15.8112ZM48.6885 10.2077V13.2307H55.4542V13.233H57.2448V10.2077H48.6885Z" fill="white"/>
<path d="M60.2156 4.66357H48.6309V7.83097H60.2156V4.66357Z" fill="white"/>
<path d="M60.2156 10.1064H48.6309V13.2738H60.2156V10.1064Z" fill="white"/>
<path d="M60.2156 15.8076H48.6309V18.975H60.2156V15.8076Z" fill="white"/>
<path fill-rule="evenodd" clip-rule="evenodd" d="M75.5352 18.9984H71.552L66.2481 10.9996V18.9984H62.2637V4.68457H66.2481L71.552 12.7859V4.68457H75.5352V18.9984Z" fill="white"/>
<path fill-rule="evenodd" clip-rule="evenodd" d="M88.6043 4.68457V7.85196H84.7831V18.9984H80.7999V7.85196H77.0195V4.68457H88.6043Z" fill="white"/>
<path fill-rule="evenodd" clip-rule="evenodd" d="M91.3887 17.9528C90.3186 17.1609 89.7427 16.0279 89.6611 14.5525H93.909C93.9498 15.0532 94.099 15.4188 94.3554 15.6494C94.6131 15.88 94.9453 15.9941 95.3509 15.9941C95.717 15.9941 96.0177 15.9033 96.2555 15.7204C96.4922 15.5376 96.6111 15.2838 96.6111 14.9589C96.6111 14.5397 96.4141 14.2148 96.0212 13.9842C95.6284 13.7548 94.9919 13.4974 94.1106 13.2133C93.1757 12.9024 92.4204 12.6008 91.8445 12.3097C91.2686 12.0185 90.7674 11.5923 90.3407 11.0311C89.9141 10.4698 89.7008 9.73499 89.7008 8.82786C89.7008 7.92073 89.9304 7.11956 90.392 6.4628C90.8525 5.80603 91.4901 5.30879 92.3026 4.97109C93.1151 4.63223 94.0372 4.46338 95.0665 4.46338C96.7335 4.46338 98.0647 4.85232 99.0602 5.63136C100.056 6.40923 100.587 7.50268 100.656 8.91054H96.3266C96.3127 8.47735 96.1809 8.15246 95.9303 7.93587C95.6797 7.71927 95.3579 7.61098 94.9651 7.61098C94.6667 7.61098 94.423 7.69948 94.233 7.87531C94.043 8.05115 93.9486 8.30152 93.9486 8.62641C93.9486 8.89773 94.0535 9.13063 94.2633 9.32626C94.4732 9.52306 94.7343 9.69191 95.0455 9.83397C95.3568 9.97604 95.8172 10.1554 96.4281 10.372C97.3361 10.684 98.0845 10.9915 98.6744 11.2954C99.2642 11.6005 99.7725 12.0267 100.199 12.574C100.626 13.1225 100.839 13.8165 100.839 14.6549C100.839 15.4934 100.626 16.2724 100.199 16.949C99.7725 17.6255 99.1558 18.16 98.3491 18.5525C97.5425 18.9449 96.5913 19.1417 95.4932 19.1417C93.8262 19.1417 92.4577 18.7458 91.3875 17.9539L91.3887 17.9528Z" fill="white"/>
<path fill-rule="evenodd" clip-rule="evenodd" d="M106.692 15.9533H111.143V18.9984H102.709V4.68457H106.692V15.9533Z" fill="#E8D313"/>
<path fill-rule="evenodd" clip-rule="evenodd" d="M121.184 18.9984L116.692 12.7242V18.9984H112.709V4.68457H116.692V10.8575L121.143 4.68457H125.737L120.473 11.6284L126 18.9984H121.184Z" fill="#E8D313"/>
<path fill-rule="evenodd" clip-rule="evenodd" d="M2.69562 0C2.69562 0 2.75624 0.710335 2.75973 0.767394C2.8425 2.131 3.35657 3.41194 4.0968 4.56361C4.99789 5.96681 6.01788 7.28384 7.01806 8.61601C8.89951 11.122 10.5979 14.3953 9.46604 17.5814C9.12099 18.5514 8.5393 19.3246 7.75711 19.9849C7.89117 19.2093 7.94829 18.3674 7.82706 17.586C7.71748 16.8792 7.36544 16.2189 7.03554 15.5948C6.69516 14.9508 6.29882 14.3371 5.84652 13.7665C5.29281 13.0678 4.69247 12.4087 4.07698 11.7648C3.76807 11.4422 3.45449 11.1243 3.14092 10.8064C2.97889 10.6422 2.81569 10.478 2.65249 10.3138C1.73391 9.3869 0.747724 8.46113 0.304756 7.19651C-0.144041 5.91558 -0.0682699 4.50306 0.363041 3.22911C0.778033 1.99942 1.54507 0.673071 2.69562 0Z" fill="#E8D313"/>
<path fill-rule="evenodd" clip-rule="evenodd" d="M2.5566 11.6553C2.43537 11.7298 2.65103 12.7254 2.67317 12.8186C2.85852 13.6058 3.25953 14.2416 3.69433 14.9088C4.14663 15.6029 4.61641 16.2876 5.11533 16.949C5.34497 17.2238 6.55847 18.7807 6.81143 19.9941C7.13084 21.5324 6.82425 22.8611 5.71217 24C5.88003 23.8276 5.73082 23.1511 5.70518 22.9391C5.64573 22.4593 5.53965 21.9784 5.35313 21.5313C5.14097 21.0224 4.72715 20.581 4.37627 20.1607C3.44138 19.0404 2.35727 18.0471 1.44918 16.9036C0.457168 15.6541 0.762583 14.0099 1.53311 12.7487C1.673 12.5193 1.82804 12.2957 2.00872 12.0954C2.15677 11.9301 2.37126 11.7694 2.5566 11.6553Z" fill="#E8D313"/>
</g>
<defs>
<clipPath id="clip0_23_58">
<rect width="126" height="24" fill="white"/>
</clipPath>
</defs>
</svg>
